<svg xmlns="http://www.w3.org/2000/svg" viewBox="0 0 640 420" role="img" aria-label="Flappy Bird cover art">
  <defs>
    <linearGradient id="sky" x1="0" y1="0" x2="1" y2="1">
      <stop offset="0" stop-color="#19133a"/>
      <stop offset=".48" stop-color="#282268"/>
      <stop offset="1" stop-color="#ff7a1a"/>
    </linearGradient>
    <linearGradient id="pipe" x1="0" y1="0" x2="1" y2="1">
      <stop offset="0" stop-color="#56f4df"/>
      <stop offset="1" stop-color="#22c55e"/>
    </linearGradient>
    <filter id="glow" x="-20%" y="-20%" width="140%" height="140%">
      <feGaussianBlur stdDeviation="8" result="blur"/>
      <feMerge>
        <feMergeNode in="blur"/>
        <feMergeNode in="SourceGraphic"/>
      </feMerge>
    </filter>
  </defs>
  <rect width="640" height="420" fill="url(#sky)"/>
  <path d="M0 318c78-36 142-24 208-5 90 25 168 22 248-18 72-36 128-38 184-10v135H0Z" fill="#0f0f23" opacity=".76"/>
  <path d="M0 92h640M0 162h640M0 232h640" stroke="#ffffff" stroke-opacity=".08" stroke-width="2"/>
  <rect x="86" y="-8" width="92" height="142" rx="16" fill="url(#pipe)" filter="url(#glow)"/>
  <rect x="70" y="124" width="124" height="32" rx="10" fill="#8bffbb"/>
  <rect x="418" y="272" width="92" height="156" rx="16" fill="url(#pipe)" filter="url(#glow)"/>
  <rect x="402" y="240" width="124" height="32" rx="10" fill="#8bffbb"/>
  <g filter="url(#glow)">
    <path d="M257 204c13-46 76-62 112-25 36 36 22 98-28 116-47 17-99-7-106-54-2-13 7-24 22-37Z" fill="#ffd166"/>
    <path d="M307 184c40 6 62 33 61 70 33-8 53-29 55-57-31-5-64-16-94-34Z" fill="#ff9f1c"/>
    <circle cx="336" cy="200" r="12" fill="#0f0f23"/>
    <circle cx="340" cy="196" r="4" fill="#ffffff"/>
    <path d="M238 221c-33-8-57 2-76 28 38 11 67 6 90-14Z" fill="#b89fff"/>
  </g>
  <path d="M245 344h150" stroke="#f1dfff" stroke-opacity=".7" stroke-width="10" stroke-linecap="round"/>
</svg>
