<svg xmlns="http://www.w3.org/2000/svg" viewBox="0 0 640 420" role="img" aria-label="Stickman Fight cover art">
  <defs>
    <linearGradient id="arena" x1="0" y1="0" x2="1" y2="1">
      <stop offset="0" stop-color="#17052b"/>
      <stop offset=".52" stop-color="#36145f"/>
      <stop offset="1" stop-color="#a855f7"/>
    </linearGradient>
    <filter id="purpleGlow" x="-30%" y="-30%" width="160%" height="160%">
      <feGaussianBlur stdDeviation="7" result="blur"/>
      <feMerge>
        <feMergeNode in="blur"/>
        <feMergeNode in="SourceGraphic"/>
      </feMerge>
    </filter>
  </defs>
  <rect width="640" height="420" fill="url(#arena)"/>
  <path d="M36 334h568l-68 54H104Z" fill="#0f0f23" stroke="#b89fff" stroke-opacity=".55" stroke-width="4"/>
  <path d="M82 70h476M58 124h524M42 178h556" stroke="#ffffff" stroke-opacity=".08" stroke-width="2"/>
  <g stroke="#f43f5e" stroke-width="12" stroke-linecap="round" stroke-linejoin="round" filter="url(#purpleGlow)">
    <circle cx="220" cy="168" r="28" fill="none"/>
    <path d="M220 198v72M220 226l-70 44M220 226l72 18M220 270l-48 50M220 270l62 52"/>
  </g>
  <g stroke="#56f4df" stroke-width="12" stroke-linecap="round" stroke-linejoin="round" filter="url(#purpleGlow)">
    <circle cx="424" cy="150" r="28" fill="none"/>
    <path d="M424 180v74M424 208l64-36M424 208l-78 26M424 254l-58 58M424 254l72 42"/>
  </g>
  <path d="m298 190 62-42M310 214l72 20" stroke="#f1dfff" stroke-width="8" stroke-linecap="round"/>
  <path d="M128 360h384" stroke="#f1dfff" stroke-opacity=".64" stroke-width="9" stroke-linecap="round"/>
</svg>
