<svg xmlns="http://www.w3.org/2000/svg" viewBox="0 0 1280 520" role="img" aria-label="Stickman Fight hero art">
  <defs>
    <linearGradient id="heroArena" x1="0" y1="0" x2="1" y2="1">
      <stop offset="0" stop-color="#12031f"/>
      <stop offset=".5" stop-color="#301158"/>
      <stop offset="1" stop-color="#a855f7"/>
    </linearGradient>
    <filter id="heroPurpleGlow" x="-30%" y="-30%" width="160%" height="160%">
      <feGaussianBlur stdDeviation="9" result="blur"/>
      <feMerge>
        <feMergeNode in="blur"/>
        <feMergeNode in="SourceGraphic"/>
      </feMerge>
    </filter>
  </defs>
  <rect width="1280" height="520" fill="url(#heroArena)"/>
  <path d="M100 378h1080l-126 86H226Z" fill="#0f0f23" stroke="#b89fff" stroke-opacity=".55" stroke-width="5"/>
  <g stroke="#ffffff" stroke-opacity=".08" stroke-width="2">
    <path d="M0 80h1280M0 150h1280M0 220h1280M0 290h1280"/>
    <path d="M150 0v520M394 0v520M638 0v520M882 0v520M1126 0v520"/>
  </g>
  <g stroke="#f43f5e" stroke-width="15" stroke-linecap="round" stroke-linejoin="round" filter="url(#heroPurpleGlow)">
    <circle cx="424" cy="190" r="36" fill="none"/>
    <path d="M424 228v96M424 260l-104 62M424 260l108 18M424 324l-72 74M424 324l88 74"/>
  </g>
  <g stroke="#56f4df" stroke-width="15" stroke-linecap="round" stroke-linejoin="round" filter="url(#heroPurpleGlow)">
    <circle cx="812" cy="166" r="36" fill="none"/>
    <path d="M812 204v102M812 238l100-62M812 238l-120 46M812 306l-92 80M812 306l118 62"/>
  </g>
  <g stroke="#f1dfff" stroke-width="10" stroke-linecap="round" filter="url(#heroPurpleGlow)">
    <path d="m568 236 132-76"/>
    <path d="m596 270 150 38"/>
    <path d="M520 440h250"/>
  </g>
</svg>
